<svg width="166" height="17" viewBox="0 0 166 17" fill="none" xmlns="http://www.w3.org/2000/svg">
<path d="M5.69531 13H3.60156V6.29688C3.60156 5.56771 3.63802 4.72917 3.71094 3.78125C3.67448 3.83333 3.53906 3.99219 3.30469 4.25781C3.07552 4.52344 2.625 5 1.95312 5.6875L0.765625 4.39062L3.80469 1.57812H5.69531V13ZM8.78438 8.14844C8.78438 5.82031 9.14635 4.11979 9.87031 3.04688C10.5943 1.96875 11.6984 1.42969 13.1828 1.42969C13.4172 1.42969 13.6516 1.44531 13.8859 1.47656C14.1203 1.5026 14.2974 1.53125 14.4172 1.5625V3.32031C14.0578 3.23698 13.7036 3.19531 13.3547 3.19531C12.7609 3.19531 12.274 3.32552 11.8938 3.58594C11.5135 3.84635 11.2245 4.23698 11.0266 4.75781C10.8286 5.27344 10.7089 6 10.6672 6.9375H10.7531C10.9354 6.50521 11.1854 6.17969 11.5031 5.96094C11.8208 5.73698 12.188 5.625 12.6047 5.625C13.3703 5.625 13.9667 5.9375 14.3938 6.5625C14.8208 7.18229 15.0344 8.07031 15.0344 9.22656C15.0344 10.4349 14.7531 11.3932 14.1906 12.1016C13.6281 12.8047 12.8651 13.1562 11.9016 13.1562C10.8807 13.1562 10.1047 12.7344 9.57344 11.8906C9.0474 11.0469 8.78438 9.79948 8.78438 8.14844ZM11.9172 11.3672C12.2297 11.3672 12.4797 11.1953 12.6672 10.8516C12.8599 10.5078 12.9563 9.97135 12.9563 9.24219C12.9563 8.65365 12.8703 8.1901 12.6984 7.85156C12.5318 7.50781 12.2766 7.33594 11.9328 7.33594C11.6255 7.33594 11.3755 7.49479 11.1828 7.8125C10.9901 8.13021 10.8938 8.53125 10.8938 9.01562C10.8938 9.77604 10.9823 10.3594 11.1594 10.7656C11.3417 11.1667 11.5943 11.3672 11.9172 11.3672ZM23.2406 7.28906C23.2406 9.35677 22.9906 10.8516 22.4906 11.7734C21.9958 12.6953 21.1964 13.1562 20.0922 13.1562C18.988 13.1562 18.1938 12.6927 17.7094 11.7656C17.2302 10.8385 16.9906 9.34635 16.9906 7.28906C16.9906 5.22656 17.2432 3.72917 17.7484 2.79688C18.2536 1.86458 19.0453 1.39844 20.1234 1.39844C21.2224 1.39844 22.0167 1.85417 22.5063 2.76562C22.9958 3.67708 23.2406 5.1849 23.2406 7.28906ZM19.1156 7.28906C19.1156 8.88802 19.1833 9.96615 19.3188 10.5234C19.4594 11.0755 19.7224 11.3516 20.1078 11.3516C20.3682 11.3516 20.5688 11.2318 20.7094 10.9922C20.8552 10.7526 20.9594 10.3568 21.0219 9.80469C21.0844 9.2474 21.1156 8.40885 21.1156 7.28906C21.1156 5.71615 21.0427 4.64323 20.8969 4.07031C20.751 3.4974 20.488 3.21094 20.1078 3.21094C19.7224 3.21094 19.4594 3.4974 19.3188 4.07031C19.1833 4.63802 19.1156 5.71094 19.1156 7.28906ZM31.4469 7.28906C31.4469 9.35677 31.1969 10.8516 30.6969 11.7734C30.2021 12.6953 29.4026 13.1562 28.2984 13.1562C27.1943 13.1562 26.4 12.6927 25.9156 11.7656C25.4365 10.8385 25.1969 9.34635 25.1969 7.28906C25.1969 5.22656 25.4495 3.72917 25.9547 2.79688C26.4599 1.86458 27.2516 1.39844 28.3297 1.39844C29.4286 1.39844 30.2229 1.85417 30.7125 2.76562C31.2021 3.67708 31.4469 5.1849 31.4469 7.28906ZM27.3219 7.28906C27.3219 8.88802 27.3896 9.96615 27.525 10.5234C27.6656 11.0755 27.9286 11.3516 28.3141 11.3516C28.5745 11.3516 28.775 11.2318 28.9156 10.9922C29.0615 10.7526 29.1656 10.3568 29.2281 9.80469C29.2906 9.2474 29.3219 8.40885 29.3219 7.28906C29.3219 5.71615 29.249 4.64323 29.1031 4.07031C28.9573 3.4974 28.6943 3.21094 28.3141 3.21094C27.9286 3.21094 27.6656 3.4974 27.525 4.07031C27.3896 4.63802 27.3219 5.71094 27.3219 7.28906Z" fill="#D1A954"/>
<path d="M44.9844 4.29688V13H42.8906V5.97656H40.5391V13H38.4609V4.29688H44.9844ZM54.0031 8.63281C54.0031 10.0599 53.701 11.1719 53.0969 11.9688C52.4927 12.7604 51.6646 13.1562 50.6125 13.1562C49.9458 13.1562 49.3573 12.974 48.8469 12.6094C48.3365 12.2448 47.9432 11.7214 47.6672 11.0391C47.3911 10.3516 47.2531 9.54948 47.2531 8.63281C47.2531 7.22135 47.5526 6.11979 48.1516 5.32812C48.7505 4.53125 49.5812 4.13281 50.6437 4.13281C51.6698 4.13281 52.4849 4.53906 53.0891 5.35156C53.6984 6.15885 54.0031 7.2526 54.0031 8.63281ZM49.3781 8.63281C49.3781 9.53906 49.4771 10.224 49.675 10.6875C49.8729 11.151 50.1906 11.3828 50.6281 11.3828C51.4615 11.3828 51.8781 10.4661 51.8781 8.63281C51.8781 7.72135 51.7766 7.04167 51.5734 6.59375C51.3755 6.14062 51.0604 5.91406 50.6281 5.91406C50.1906 5.91406 49.8729 6.14062 49.675 6.59375C49.4771 7.04167 49.3781 7.72135 49.3781 8.63281ZM59.1391 13.1562C58.1026 13.1562 57.3135 12.7786 56.7719 12.0234C56.2302 11.2682 55.9594 10.1589 55.9594 8.69531C55.9594 7.16406 56.2146 6.02083 56.725 5.26562C57.2406 4.51042 58.0349 4.13281 59.1078 4.13281C59.4307 4.13281 59.7693 4.17969 60.1234 4.27344C60.4776 4.36719 60.7953 4.5026 61.0766 4.67969L60.4828 6.29688C60.0505 6.04167 59.6677 5.91406 59.3344 5.91406C58.8917 5.91406 58.5714 6.14583 58.3734 6.60938C58.1807 7.06771 58.0844 7.75781 58.0844 8.67969C58.0844 9.58073 58.1807 10.2552 58.3734 10.7031C58.5661 11.1458 58.8812 11.3672 59.3187 11.3672C59.8396 11.3672 60.3839 11.1849 60.9516 10.8203V12.6484C60.4047 12.987 59.8005 13.1562 59.1391 13.1562ZM67.2672 13L66.8531 11.8125H66.8063C66.499 12.3229 66.1813 12.6745 65.8531 12.8672C65.525 13.0599 65.1109 13.1562 64.6109 13.1562C63.9703 13.1562 63.4651 12.9167 63.0953 12.4375C62.7307 11.9583 62.5484 11.2917 62.5484 10.4375C62.5484 9.52083 62.7984 8.84115 63.2984 8.39844C63.8036 7.95052 64.5563 7.70312 65.5563 7.65625L66.7125 7.60938V6.98438C66.7125 6.17188 66.3609 5.76562 65.6578 5.76562C65.137 5.76562 64.538 5.96875 63.8609 6.375L63.1422 4.9375C64.0068 4.39062 64.9469 4.11719 65.9625 4.11719C66.8844 4.11719 67.5849 4.38281 68.0641 4.91406C68.5484 5.4401 68.7906 6.1875 68.7906 7.15625V13H67.2672ZM65.4625 11.5312C65.8427 11.5312 66.1448 11.362 66.3688 11.0234C66.5979 10.6797 66.7125 10.224 66.7125 9.65625V8.92188L66.0719 8.95312C65.5979 8.97917 65.249 9.11458 65.025 9.35938C64.8063 9.60417 64.6969 9.96875 64.6969 10.4531C64.6969 11.1719 64.9521 11.5312 65.4625 11.5312ZM75.4734 11.3672V5.94531H74.45C74.2521 8.19531 73.8745 10.0026 73.3172 11.3672H75.4734ZM78.7078 16.1016H76.6453V13H72.6766V16.1016H70.6141V11.3672H71.1375C71.5542 10.5286 71.8849 9.5026 72.1297 8.28906C72.3745 7.07552 72.5307 5.74479 72.5984 4.29688H77.575V11.3672H78.7078V16.1016ZM87.0625 8.63281C87.0625 10.0599 86.7604 11.1719 86.1562 11.9688C85.5521 12.7604 84.724 13.1562 83.6719 13.1562C83.0052 13.1562 82.4167 12.974 81.9062 12.6094C81.3958 12.2448 81.0026 11.7214 80.7266 11.0391C80.4505 10.3516 80.3125 9.54948 80.3125 8.63281C80.3125 7.22135 80.612 6.11979 81.2109 5.32812C81.8099 4.53125 82.6406 4.13281 83.7031 4.13281C84.7292 4.13281 85.5443 4.53906 86.1484 5.35156C86.7578 6.15885 87.0625 7.2526 87.0625 8.63281ZM82.4375 8.63281C82.4375 9.53906 82.5365 10.224 82.7344 10.6875C82.9323 11.151 83.25 11.3828 83.6875 11.3828C84.5208 11.3828 84.9375 10.4661 84.9375 8.63281C84.9375 7.72135 84.8359 7.04167 84.6328 6.59375C84.4349 6.14062 84.1198 5.91406 83.6875 5.91406C83.25 5.91406 82.9323 6.14062 82.7344 6.59375C82.5365 7.04167 82.4375 7.72135 82.4375 8.63281ZM91.3234 4.29688V7.53125C91.3234 7.93229 91.3885 8.22396 91.5188 8.40625C91.649 8.58854 91.8547 8.67969 92.1359 8.67969C92.4276 8.67969 92.6828 8.61979 92.9016 8.5C93.1255 8.38021 93.3495 8.23177 93.5734 8.05469V4.29688H95.675V13H93.5734V9.47656C92.8547 10.0339 92.1359 10.3125 91.4172 10.3125C90.7036 10.3125 90.162 10.0938 89.7922 9.65625C89.4224 9.21875 89.2375 8.56771 89.2375 7.70312V4.29688H91.3234ZM100.295 4.29688V7.6875H102.647V4.29688H104.741V13H102.647V9.35156H100.295V13H98.2172V4.29688H100.295ZM109.377 7.70312H110.002C111.153 7.70312 112.002 7.91406 112.548 8.33594C113.101 8.75781 113.377 9.39583 113.377 10.25C113.377 12.0833 112.231 13 109.939 13H107.298V4.29688H109.377V7.70312ZM111.244 10.2969C111.244 9.92708 111.129 9.66146 110.9 9.5C110.676 9.33854 110.322 9.25781 109.838 9.25781H109.377V11.4453H109.869C110.311 11.4453 110.65 11.3594 110.884 11.1875C111.124 11.0104 111.244 10.7135 111.244 10.2969ZM116.689 13H114.595V4.29688H116.689V13ZM121.169 4.29688V8.32812C121.169 8.82812 121.106 9.65885 120.981 10.8203L123.809 4.29688H126.356V13H124.419V8.90625C124.419 8.29167 124.479 7.46354 124.598 6.42188L121.762 13H119.239V4.29688H121.169ZM125.645 0.773438C125.541 1.64844 125.255 2.28906 124.786 2.69531C124.322 3.10156 123.637 3.30469 122.731 3.30469C121.846 3.30469 121.182 3.10677 120.739 2.71094C120.296 2.3099 120.033 1.66406 119.95 0.773438H121.677C121.734 1.29427 121.843 1.64583 122.005 1.82812C122.171 2.01042 122.429 2.10156 122.778 2.10156C123.122 2.10156 123.377 1.9974 123.544 1.78906C123.716 1.58073 123.83 1.24219 123.887 0.773438H125.645ZM142.675 13H140.816V5.92969C140.665 6.77344 140.451 7.72135 140.175 8.77344L139.042 13H137.277L136.144 8.75781C135.899 7.84635 135.685 6.90365 135.503 5.92969V13H133.683V4.29688H136.675L137.73 8.35938C137.959 9.26562 138.097 10.1094 138.144 10.8906C138.165 10.625 138.219 10.2526 138.308 9.77344C138.402 9.29427 138.506 8.82292 138.62 8.35938L139.698 4.29688H142.675V13ZM148.428 13.1562C147.34 13.1562 146.48 12.7708 145.85 12C145.225 11.224 144.913 10.1276 144.913 8.71094C144.913 7.27344 145.196 6.15104 145.764 5.34375C146.332 4.53646 147.123 4.13281 148.139 4.13281C149.087 4.13281 149.834 4.47917 150.381 5.17188C150.928 5.85938 151.202 6.82552 151.202 8.07031V9.17969H147.022C147.038 9.95573 147.196 10.5339 147.498 10.9141C147.801 11.2891 148.217 11.4766 148.748 11.4766C149.426 11.4766 150.118 11.2656 150.827 10.8438V12.5547C150.16 12.9557 149.36 13.1562 148.428 13.1562ZM148.123 5.73438C147.827 5.73438 147.582 5.89323 147.389 6.21094C147.196 6.52344 147.084 7.01042 147.053 7.67188H149.163C149.152 7.03646 149.056 6.55469 148.873 6.22656C148.691 5.89844 148.441 5.73438 148.123 5.73438ZM156.252 13.1562C155.215 13.1562 154.426 12.7786 153.884 12.0234C153.343 11.2682 153.072 10.1589 153.072 8.69531C153.072 7.16406 153.327 6.02083 153.837 5.26562C154.353 4.51042 155.147 4.13281 156.22 4.13281C156.543 4.13281 156.882 4.17969 157.236 4.27344C157.59 4.36719 157.908 4.5026 158.189 4.67969L157.595 6.29688C157.163 6.04167 156.78 5.91406 156.447 5.91406C156.004 5.91406 155.684 6.14583 155.486 6.60938C155.293 7.06771 155.197 7.75781 155.197 8.67969C155.197 9.58073 155.293 10.2552 155.486 10.7031C155.679 11.1458 155.994 11.3672 156.431 11.3672C156.952 11.3672 157.496 11.1849 158.064 10.8203V12.6484C157.517 12.987 156.913 13.1562 156.252 13.1562ZM165.473 4.29688V5.97656H163.536V13H161.458V5.97656H159.52V4.29688H165.473Z" fill="white"/>
</svg>
