<svg width="118" height="16" viewBox="0 0 118 16" fill="none" xmlns="http://www.w3.org/2000/svg">
<path d="M6.47656 3.14844C6.47656 3.86719 6.29948 4.47135 5.94531 4.96094C5.59115 5.44531 5.09115 5.78125 4.44531 5.96875V6.03125C5.16406 6.14583 5.71875 6.42708 6.10938 6.875C6.50521 7.32292 6.70312 7.93229 6.70312 8.70312C6.70312 9.75521 6.375 10.5938 5.71875 11.2188C5.06771 11.8438 4.17448 12.1562 3.03906 12.1562C2.02865 12.1562 1.17969 11.9766 0.492188 11.6172V9.71094C0.835938 9.91927 1.20833 10.0833 1.60938 10.2031C2.01042 10.3229 2.39583 10.3828 2.76562 10.3828C3.36979 10.3828 3.82552 10.2448 4.13281 9.96875C4.4401 9.6875 4.59375 9.24479 4.59375 8.64062C4.59375 7.5 3.89323 6.92969 2.49219 6.92969H1.84375V5.34375H2.46094C3.08073 5.34375 3.55469 5.19792 3.88281 4.90625C4.21615 4.61458 4.38281 4.17969 4.38281 3.60156C4.38281 3.14844 4.27604 2.80729 4.0625 2.57812C3.85417 2.34375 3.55729 2.22656 3.17188 2.22656C2.58333 2.22656 2.01042 2.47656 1.45312 2.97656L0.492188 1.57031C1.26302 0.799479 2.23438 0.414062 3.40625 0.414062C4.36979 0.414062 5.1224 0.658854 5.66406 1.14844C6.20573 1.63281 6.47656 2.29948 6.47656 3.14844ZM12.1125 4.85156C12.9719 4.85156 13.6542 5.15104 14.1594 5.75C14.6698 6.34896 14.925 7.16927 14.925 8.21094C14.925 9.45573 14.6073 10.4245 13.9719 11.1172C13.3417 11.8099 12.4641 12.1562 11.3391 12.1562C10.3391 12.1562 9.52917 11.9661 8.90938 11.5859V9.60156C9.175 9.79427 9.51615 9.96615 9.93281 10.1172C10.3547 10.263 10.7453 10.3359 11.1047 10.3359C12.2245 10.3359 12.7844 9.6849 12.7844 8.38281C12.7844 7.16927 12.2401 6.5625 11.1516 6.5625C10.7193 6.5625 10.2609 6.64583 9.77656 6.8125L9.08906 6.30469L9.44063 0.578125H14.3156V2.47656H11.2609L11.1047 4.94531C11.3964 4.88281 11.7323 4.85156 12.1125 4.85156ZM23.2406 6.28906C23.2406 8.35677 22.9906 9.85156 22.4906 10.7734C21.9958 11.6953 21.1964 12.1562 20.0922 12.1562C18.988 12.1562 18.1938 11.6927 17.7094 10.7656C17.2302 9.83854 16.9906 8.34635 16.9906 6.28906C16.9906 4.22656 17.2432 2.72917 17.7484 1.79688C18.2536 0.864583 19.0453 0.398438 20.1234 0.398438C21.2224 0.398438 22.0167 0.854167 22.5063 1.76562C22.9958 2.67708 23.2406 4.1849 23.2406 6.28906ZM19.1156 6.28906C19.1156 7.88802 19.1833 8.96615 19.3188 9.52344C19.4594 10.0755 19.7224 10.3516 20.1078 10.3516C20.3682 10.3516 20.5688 10.2318 20.7094 9.99219C20.8552 9.7526 20.9594 9.35677 21.0219 8.80469C21.0844 8.2474 21.1156 7.40885 21.1156 6.28906C21.1156 4.71615 21.0427 3.64323 20.8969 3.07031C20.751 2.4974 20.488 2.21094 20.1078 2.21094C19.7224 2.21094 19.4594 2.4974 19.3188 3.07031C19.1833 3.63802 19.1156 4.71094 19.1156 6.28906Z" fill="#D1A954"/>
<path d="M36.5594 12H34.4734V4.97656H33.3094C33.2052 6.74219 33.0359 8.14323 32.8016 9.17969C32.5724 10.2161 32.2625 10.9688 31.8719 11.4375C31.4865 11.9062 30.9734 12.1406 30.3328 12.1406C29.9422 12.1406 29.6219 12.0833 29.3719 11.9688V10.2578C29.5281 10.3099 29.687 10.3359 29.8484 10.3359C30.2859 10.3359 30.6271 9.77865 30.8719 8.66406C31.1167 7.54427 31.3042 5.75521 31.4344 3.29688H36.5594V12ZM42.3281 12.1562C41.2396 12.1562 40.3802 11.7708 39.75 11C39.125 10.224 38.8125 9.1276 38.8125 7.71094C38.8125 6.27344 39.0964 5.15104 39.6641 4.34375C40.2318 3.53646 41.0234 3.13281 42.0391 3.13281C42.987 3.13281 43.7344 3.47917 44.2812 4.17188C44.8281 4.85938 45.1016 5.82552 45.1016 7.07031V8.17969H40.9219C40.9375 8.95573 41.0964 9.53385 41.3984 9.91406C41.7005 10.2891 42.1172 10.4766 42.6484 10.4766C43.3255 10.4766 44.0182 10.2656 44.7266 9.84375V11.5547C44.0599 11.9557 43.2604 12.1562 42.3281 12.1562ZM42.0234 4.73438C41.7266 4.73438 41.4818 4.89323 41.2891 5.21094C41.0964 5.52344 40.9844 6.01042 40.9531 6.67188H43.0625C43.0521 6.03646 42.9557 5.55469 42.7734 5.22656C42.5911 4.89844 42.3411 4.73438 42.0234 4.73438ZM52.6359 3.29688V4.97656H50.6984V12H48.6203V4.97656H46.6828V3.29688H52.6359ZM61.2906 3.29688V7.32812C61.2906 7.82812 61.2281 8.65885 61.1031 9.82031L63.9313 3.29688H66.4781V12H64.5406V7.90625C64.5406 7.29167 64.6005 6.46354 64.7203 5.42188L61.8844 12H59.3609V3.29688H61.2906ZM71.9266 12.1562C70.8901 12.1562 70.101 11.7786 69.5594 11.0234C69.0177 10.2682 68.7469 9.15885 68.7469 7.69531C68.7469 6.16406 69.0021 5.02083 69.5125 4.26562C70.0281 3.51042 70.8224 3.13281 71.8953 3.13281C72.2182 3.13281 72.5568 3.17969 72.9109 3.27344C73.2651 3.36719 73.5828 3.5026 73.8641 3.67969L73.2703 5.29688C72.838 5.04167 72.4552 4.91406 72.1219 4.91406C71.6792 4.91406 71.3589 5.14583 71.1609 5.60938C70.9682 6.06771 70.8719 6.75781 70.8719 7.67969C70.8719 8.58073 70.9682 9.25521 71.1609 9.70312C71.3536 10.1458 71.6687 10.3672 72.1062 10.3672C72.6271 10.3672 73.1714 10.1849 73.7391 9.82031V11.6484C73.1922 11.987 72.588 12.1562 71.9266 12.1562ZM81.1484 3.29688V4.97656H79.2109V12H77.1328V4.97656H75.1953V3.29688H81.1484ZM89.3156 7.63281C89.3156 9.0599 89.0135 10.1719 88.4094 10.9688C87.8052 11.7604 86.9771 12.1562 85.925 12.1562C85.2583 12.1562 84.6698 11.974 84.1594 11.6094C83.649 11.2448 83.2557 10.7214 82.9797 10.0391C82.7036 9.35156 82.5656 8.54948 82.5656 7.63281C82.5656 6.22135 82.8651 5.11979 83.4641 4.32812C84.063 3.53125 84.8938 3.13281 85.9563 3.13281C86.9823 3.13281 87.7974 3.53906 88.4016 4.35156C89.0109 5.15885 89.3156 6.2526 89.3156 7.63281ZM84.6906 7.63281C84.6906 8.53906 84.7896 9.22396 84.9875 9.6875C85.1854 10.151 85.5031 10.3828 85.9406 10.3828C86.774 10.3828 87.1906 9.46615 87.1906 7.63281C87.1906 6.72135 87.0891 6.04167 86.8859 5.59375C86.688 5.14062 86.3729 4.91406 85.9406 4.91406C85.5031 4.91406 85.1854 5.14062 84.9875 5.59375C84.7896 6.04167 84.6906 6.72135 84.6906 7.63281ZM95.4594 12.1562C95.0844 12.1562 94.751 12.0729 94.4594 11.9062C94.1729 11.7344 93.9047 11.4349 93.6547 11.0078H93.5453C93.6286 11.7161 93.6703 12.1432 93.6703 12.2891V15.8438H91.5766V3.29688H93.1859L93.5453 4.42969H93.6391C94.0714 3.5651 94.699 3.13281 95.5219 3.13281C96.3135 3.13281 96.9333 3.52604 97.3812 4.3125C97.8292 5.09375 98.0531 6.20052 98.0531 7.63281C98.0531 9.04427 97.8214 10.151 97.3578 10.9531C96.8943 11.7552 96.2615 12.1562 95.4594 12.1562ZM94.8187 4.89844C94.4125 4.89844 94.1182 5.08854 93.9359 5.46875C93.7589 5.84375 93.6651 6.46875 93.6547 7.34375V7.61719C93.6547 8.57552 93.7458 9.27344 93.9281 9.71094C94.1104 10.1484 94.4125 10.3672 94.8344 10.3672C95.5635 10.3672 95.9281 9.44531 95.9281 7.60156C95.9281 6.69531 95.837 6.01823 95.6547 5.57031C95.4776 5.1224 95.199 4.89844 94.8187 4.89844ZM102.244 3.29688V7.32812C102.244 7.82812 102.181 8.65885 102.056 9.82031L104.884 3.29688H107.431V12H105.494V7.90625C105.494 7.29167 105.554 6.46354 105.673 5.42188L102.838 12H100.314V3.29688H102.244ZM111.934 3.29688V7.32812C111.934 7.82812 111.872 8.65885 111.747 9.82031L114.575 3.29688H117.122V12H115.184V7.90625C115.184 7.29167 115.244 6.46354 115.364 5.42188L112.528 12H110.005V3.29688H111.934Z" fill="white"/>
</svg>
