<svg width="173" height="36" viewBox="0 0 173 36" fill="none" xmlns="http://www.w3.org/2000/svg">
<path d="M20.5047 17.8203C20.5047 23.4922 19.6531 27.8516 17.95 30.8984C16.2625 33.9453 13.8172 35.4688 10.6141 35.4688C7.37968 35.4688 4.92656 33.9375 3.25468 30.875C1.58281 27.7969 0.746872 23.4297 0.746872 17.7734C0.746872 11.8672 1.575 7.46875 3.23125 4.57812C4.8875 1.6875 7.37187 0.242188 10.6844 0.242188C13.8719 0.242188 16.3016 1.76562 17.9734 4.8125C19.6609 7.84375 20.5047 12.1797 20.5047 17.8203ZM3.1375 17.8203C3.1375 22.9141 3.77031 26.7656 5.03593 29.375C6.31718 31.9688 8.17656 33.2656 10.6141 33.2656C13.0672 33.2656 14.9266 31.9766 16.1922 29.3984C17.4734 26.8203 18.1141 22.9609 18.1141 17.8203C18.1141 12.7422 17.4891 8.91406 16.2391 6.33594C14.9891 3.74219 13.1375 2.44531 10.6844 2.44531C8.16875 2.44531 6.27812 3.75781 5.0125 6.38281C3.7625 8.99219 3.1375 12.8047 3.1375 17.8203Z" fill="#D1A954"/>
<path d="M51.2219 35H48.925V2.9375H42.1047V0.734375H58.0422V2.9375H51.2219V35ZM79.4359 35H67.0141V0.734375H79.4359V2.9375H69.3109V15.9453H78.8734V18.1484H69.3109V32.7969H79.4359V35ZM103.244 35L100.22 22.5781H91.9L88.9234 35H86.5328L94.7828 0.734375H97.15L105.587 35H103.244ZM99.6812 20.2578L96.6578 7.48438C96.3453 6.04688 96.1031 4.6875 95.9312 3.40625C95.7906 4.76562 95.5719 6.125 95.275 7.48438L92.3453 20.2578H99.6812ZM119.856 35H117.559V2.9375H110.739V0.734375H126.677V2.9375H119.856V35ZM149.992 10.5781C149.992 14.1094 149.18 16.7031 147.555 18.3594C145.945 20.0156 143.555 20.8438 140.383 20.8438H137.945V35H135.648V0.734375H140.336C143.68 0.734375 146.125 1.52344 147.672 3.10156C149.219 4.67969 149.992 7.17188 149.992 10.5781ZM137.945 18.7344H140.242C142.93 18.7344 144.836 18.1016 145.961 16.8359C147.086 15.5703 147.648 13.4844 147.648 10.5781C147.648 7.8125 147.062 5.83594 145.891 4.64844C144.734 3.44531 142.938 2.84375 140.5 2.84375H137.945V18.7344ZM172.558 35H160.136V0.734375H172.558V2.9375H162.433V15.9453H171.995V18.1484H162.433V32.7969H172.558V35Z" fill="white"/>
</svg>
