<svg width="26" height="26" xmlns="http://www.w3.org/2000/svg">

 <g>
  <title>background</title>
  <rect fill="none" id="canvas_background" height="402" width="582" y="-1" x="-1"/>
 </g>
 <g>
  <title>Layer 1</title>
  <path stroke="null" id="svg_1" fill="#c4c4c4" d="m17.800611,0l-9.671231,0c-4.45038,0 -8.05937,3.63838 -8.05937,8.125l0,9.75c0,4.4866 3.60899,8.125 8.05937,8.125l9.671231,0c4.45036,0 8.05937,-3.6384 8.05937,-8.125l0,-9.75c0,-4.48662 -3.60901,-8.125 -8.05937,-8.125zm5.64156,17.875c0,3.1362 -2.53069,5.6875 -5.64156,5.6875l-9.671231,0c-3.11092,0 -5.64156,-2.5513 -5.64156,-5.6875l0,-9.75c0,-3.13625 2.53064,-5.6875 5.64156,-5.6875l9.671231,0c3.11087,0 5.64156,2.55125 5.64156,5.6875l0,9.75z"/>
  <path id="svg_2" fill="#c4c4c4" d="m13,6.5c-3.58963,0 -6.5,2.91037 -6.5,6.5c0,3.5896 2.91037,6.5 6.5,6.5c3.5896,0 6.5,-2.9104 6.5,-6.5c0,-3.58963 -2.9104,-6.5 -6.5,-6.5zm0,10.5625c-2.2393,0 -4.0625,-1.8232 -4.0625,-4.0625c0,-2.2409 1.8232,-4.0625 4.0625,-4.0625c2.2393,0 4.0625,1.8216 4.0625,4.0625c0,2.2393 -1.8232,4.0625 -4.0625,4.0625z"/>
  <path id="svg_3" fill="#c4c4c4" d="m19.9854,6.87891c0.4783,0 0.8661,-0.38777 0.8661,-0.86612c0,-0.47835 -0.3878,-0.86612 -0.8661,-0.86612c-0.4784,0 -0.8661,0.38777 -0.8661,0.86612c0,0.47835 0.3877,0.86612 0.8661,0.86612z"/>
 </g>
</svg>