<svg width="392" height="36" viewBox="0 0 392 36" fill="none" xmlns="http://www.w3.org/2000/svg">
<path d="M17.4156 35H15.1187V18.1484H3.16562V35H0.868744V0.734375H3.16562V15.9453H15.1187V0.734375H17.4156V35ZM42.6766 35L39.6531 22.5781H31.3328L28.3562 35H25.9656L34.2156 0.734375H36.5828L45.0203 35H42.6766ZM39.1141 20.2578L36.0906 7.48438C35.7781 6.04688 35.5359 4.6875 35.3641 3.40625C35.2234 4.76562 35.0047 6.125 34.7078 7.48438L31.7781 20.2578H39.1141ZM79.0703 35H53.5937V0.734375H55.8906V32.7969H65.1484V0.734375H67.4687V32.7969H76.7734V0.734375H79.0703V35ZM91.3937 0.734375H93.6437V24.6875C93.6437 25.2188 93.6359 25.75 93.6203 26.2812C93.6203 26.7969 93.55 28.4062 93.4094 31.1094H93.5969L106.464 0.734375H109.441V35H107.191V10.4141C107.191 8.44531 107.284 6.39844 107.472 4.27344H107.284L94.3234 35H91.3937V0.734375Z" fill="#D1A954"/>
<path d="M152.134 35H149.837V2.9375H137.884V35H135.587V0.734375H152.134V35ZM183.044 17.8203C183.044 23.4922 182.192 27.8516 180.489 30.8984C178.802 33.9453 176.356 35.4688 173.153 35.4688C169.919 35.4688 167.466 33.9375 165.794 30.875C164.122 27.7969 163.286 23.4297 163.286 17.7734C163.286 11.8672 164.114 7.46875 165.77 4.57812C167.427 1.6875 169.911 0.242188 173.223 0.242188C176.411 0.242188 178.841 1.76562 180.512 4.8125C182.2 7.84375 183.044 12.1797 183.044 17.8203ZM165.677 17.8203C165.677 22.9141 166.309 26.7656 167.575 29.375C168.856 31.9688 170.716 33.2656 173.153 33.2656C175.606 33.2656 177.466 31.9766 178.731 29.3984C180.012 26.8203 180.653 22.9609 180.653 17.8203C180.653 12.7422 180.028 8.91406 178.778 6.33594C177.528 3.74219 175.677 2.44531 173.223 2.44531C170.708 2.44531 168.817 3.75781 167.552 6.38281C166.302 8.99219 165.677 12.8047 165.677 17.8203ZM203.898 2.39844C201.32 2.39844 199.266 3.76562 197.734 6.5C196.219 9.21875 195.461 12.9922 195.461 17.8203C195.461 20.9609 195.812 23.6953 196.516 26.0234C197.219 28.3516 198.227 30.1406 199.539 31.3906C200.852 32.6406 202.375 33.2656 204.109 33.2656C205.891 33.2656 207.422 32.9453 208.703 32.3047V34.4141C207.484 35.1172 205.883 35.4688 203.898 35.4688C201.727 35.4688 199.82 34.7656 198.18 33.3594C196.555 31.9531 195.297 29.9219 194.406 27.2656C193.516 24.5938 193.07 21.4297 193.07 17.7734C193.07 12.3047 194.039 8.00781 195.977 4.88281C197.93 1.75781 200.586 0.195312 203.945 0.195312C206.039 0.195312 207.867 0.679688 209.43 1.64844L208.375 3.66406C207.062 2.82031 205.57 2.39844 203.898 2.39844ZM224.87 35H222.573V2.9375H215.753V0.734375H231.691V2.9375H224.87V35ZM253.623 35L250.6 22.5781H242.28L239.303 35H236.912L245.162 0.734375H247.53L255.967 35H253.623ZM250.061 20.2578L247.037 7.48438C246.725 6.04688 246.483 4.6875 246.311 3.40625C246.17 4.76562 245.952 6.125 245.655 7.48438L242.725 20.2578H250.061ZM281.087 35H278.791V18.1484H266.837V35H264.541V0.734375H266.837V15.9453H278.791V0.734375H281.087V35ZM311.997 17.8203C311.997 23.4922 311.145 27.8516 309.442 30.8984C307.755 33.9453 305.309 35.4688 302.106 35.4688C298.872 35.4688 296.419 33.9375 294.747 30.875C293.075 27.7969 292.239 23.4297 292.239 17.7734C292.239 11.8672 293.067 7.46875 294.723 4.57812C296.38 1.6875 298.864 0.242188 302.177 0.242188C305.364 0.242188 307.794 1.76562 309.466 4.8125C311.153 7.84375 311.997 12.1797 311.997 17.8203ZM294.63 17.8203C294.63 22.9141 295.262 26.7656 296.528 29.375C297.809 31.9688 299.669 33.2656 302.106 33.2656C304.559 33.2656 306.419 31.9766 307.684 29.3984C308.966 26.8203 309.606 22.9609 309.606 17.8203C309.606 12.7422 308.981 8.91406 307.731 6.33594C306.481 3.74219 304.63 2.44531 302.177 2.44531C299.661 2.44531 297.77 3.75781 296.505 6.38281C295.255 8.99219 294.63 12.8047 294.63 17.8203ZM323.172 0.734375H329.734C332.422 0.734375 334.484 1.42188 335.922 2.79688C337.375 4.17188 338.102 6.20312 338.102 8.89062C338.102 13.5312 336.406 16.1875 333.016 16.8594V17.0469C334.969 17.4531 336.422 18.3281 337.375 19.6719C338.328 21 338.805 22.8594 338.805 25.25C338.805 28.3125 338.125 30.7031 336.766 32.4219C335.406 34.1406 333.5 35 331.047 35H323.172V0.734375ZM325.469 15.9922H329.781C331.922 15.9922 333.445 15.4062 334.352 14.2344C335.273 13.0469 335.734 11.25 335.734 8.84375C335.734 6.90625 335.227 5.42188 334.211 4.39062C333.211 3.35938 331.719 2.84375 329.734 2.84375H325.469V15.9922ZM325.469 18.1016V32.8906H330.742C334.523 32.8906 336.414 30.3281 336.414 25.2031C336.414 22.9219 335.859 21.1719 334.75 19.9531C333.641 18.7188 332.086 18.1016 330.086 18.1016H325.469ZM351.55 17.2812L361.253 0.734375H363.737L353.941 17.2812L364.511 35H361.862L351.55 17.4688V35H349.253V0.734375H351.55V17.2812ZM373.084 0.734375H375.334V24.6875C375.334 25.2188 375.327 25.75 375.311 26.2812C375.311 26.7969 375.241 28.4062 375.1 31.1094H375.288L388.155 0.734375H391.131V35H388.881V10.4141C388.881 8.44531 388.975 6.39844 389.163 4.27344H388.975L376.014 35H373.084V0.734375Z" fill="white"/>
</svg>
