<svg width="355" height="35" viewBox="0 0 355 35" fill="none" xmlns="http://www.w3.org/2000/svg">
<path d="M17.4312 35H15.1344V2.9375H3.18124V35H0.884369V0.734375H17.4312V35ZM42.6922 35L39.6687 22.5781H31.3484L28.3719 35H25.9812L34.2312 0.734375H36.5984L45.0359 35H42.6922ZM39.1297 20.2578L36.1062 7.48438C35.7937 6.04688 35.5516 4.6875 35.3797 3.40625C35.2391 4.76562 35.0203 6.125 34.7234 7.48438L31.7937 20.2578H39.1297ZM67.9531 10.5781C67.9531 14.1094 67.1406 16.7031 65.5156 18.3594C63.9062 20.0156 61.5156 20.8438 58.3437 20.8438H55.9062V35H53.6094V0.734375H58.2969C61.6406 0.734375 64.0859 1.52344 65.6328 3.10156C67.1797 4.67969 67.9531 7.17188 67.9531 10.5781ZM55.9062 18.7344H58.2031C60.8906 18.7344 62.7969 18.1016 63.9219 16.8359C65.0469 15.5703 65.6094 13.4844 65.6094 10.5781C65.6094 7.8125 65.0234 5.83594 63.8516 4.64844C62.6953 3.44531 60.8984 2.84375 58.4609 2.84375H55.9062V18.7344ZM83.7922 35H81.4953V2.9375H74.675V0.734375H90.6125V2.9375H83.7922V35ZM116.131 35H113.834V18.1484H101.881V35H99.5844V0.734375H101.881V15.9453H113.834V0.734375H116.131V35ZM140.853 35H128.431V0.734375H140.853V2.9375H130.728V15.9453H140.291V18.1484H130.728V32.7969H140.853V35ZM166.044 10.5781C166.044 14.1094 165.231 16.7031 163.606 18.3594C161.997 20.0156 159.606 20.8438 156.434 20.8438H153.997V35H151.7V0.734375H156.387C159.731 0.734375 162.177 1.52344 163.723 3.10156C165.27 4.67969 166.044 7.17188 166.044 10.5781ZM153.997 18.7344H156.294C158.981 18.7344 160.887 18.1016 162.012 16.8359C163.137 15.5703 163.7 13.4844 163.7 10.5781C163.7 7.8125 163.114 5.83594 161.942 4.64844C160.786 3.44531 158.989 2.84375 156.552 2.84375H153.997V18.7344ZM191.117 25.3906C191.117 28.3906 190.32 30.7422 188.727 32.4453C187.148 34.1484 184.969 35 182.188 35H176.188V0.734375H178.484V15.9453H182.141C185.203 15.9453 187.461 16.7109 188.914 18.2422C190.383 19.7578 191.117 22.1406 191.117 25.3906ZM178.484 32.8906H182.281C184.375 32.8906 185.977 32.25 187.086 30.9688C188.195 29.6719 188.75 27.8125 188.75 25.3906C188.75 22.875 188.227 21.0234 187.18 19.8359C186.133 18.6484 184.484 18.0547 182.234 18.0547H178.484V32.8906ZM198.781 35H196.484V0.734375H198.781V35Z" fill="#D1A954"/>
<path d="M230.623 35H228.327V2.9375H221.506V0.734375H237.444V2.9375H230.623V35ZM258.837 35H246.416V0.734375H258.837V2.9375H248.712V15.9453H258.275V18.1484H248.712V32.7969H258.837V35ZM282.645 35L279.622 22.5781H271.302L268.325 35H265.934L274.184 0.734375H276.552L284.989 35H282.645ZM279.083 20.2578L276.059 7.48438C275.747 6.04688 275.505 4.6875 275.333 3.40625C275.192 4.76562 274.973 6.125 274.677 7.48438L271.747 20.2578H279.083ZM299.258 35H296.961V2.9375H290.141V0.734375H306.078V2.9375H299.258V35ZM329.394 10.5781C329.394 14.1094 328.581 16.7031 326.956 18.3594C325.347 20.0156 322.956 20.8438 319.784 20.8438H317.347V35H315.05V0.734375H319.737C323.081 0.734375 325.527 1.52344 327.073 3.10156C328.62 4.67969 329.394 7.17188 329.394 10.5781ZM317.347 18.7344H319.644C322.331 18.7344 324.237 18.1016 325.362 16.8359C326.487 15.5703 327.05 13.4844 327.05 10.5781C327.05 7.8125 326.464 5.83594 325.292 4.64844C324.136 3.44531 322.339 2.84375 319.902 2.84375H317.347V18.7344ZM352.498 35L349.475 22.5781H341.155L338.178 35H335.788L344.038 0.734375H346.405L354.842 35H352.498ZM348.936 20.2578L345.913 7.48438C345.6 6.04688 345.358 4.6875 345.186 3.40625C345.045 4.76562 344.827 6.125 344.53 7.48438L341.6 20.2578H348.936Z" fill="white"/>
</svg>
