<svg width="376" height="44" viewBox="0 0 376 44" fill="none" xmlns="http://www.w3.org/2000/svg">
<path d="M11.5797 2.39844C9.00156 2.39844 6.94687 3.76562 5.41562 6.5C3.89999 9.21875 3.14218 12.9922 3.14218 17.8203C3.14218 20.9609 3.49374 23.6953 4.19687 26.0234C4.89999 28.3516 5.90781 30.1406 7.22031 31.3906C8.53281 32.6406 10.0562 33.2656 11.7906 33.2656C13.5719 33.2656 15.1031 32.9453 16.3844 32.3047V34.4141C15.1656 35.1172 13.5641 35.4688 11.5797 35.4688C9.40781 35.4688 7.50156 34.7656 5.86093 33.3594C4.23593 31.9531 2.97812 29.9219 2.08749 27.2656C1.19687 24.5938 0.751556 21.4297 0.751556 17.7734C0.751556 12.3047 1.72031 8.00781 3.65781 4.88281C5.61093 1.75781 8.26718 0.195312 11.6266 0.195312C13.7203 0.195312 15.5484 0.679688 17.1109 1.64844L16.0562 3.66406C14.7437 2.82031 13.2516 2.39844 11.5797 2.39844ZM32.5516 35H30.2547V2.9375H23.4344V0.734375H39.3719V2.9375H32.5516V35ZM61.3047 35L58.2812 22.5781H49.9609L46.9844 35H44.5937L52.8437 0.734375H55.2109L63.6484 35H61.3047ZM57.7422 20.2578L54.7187 7.48438C54.4062 6.04688 54.1641 4.6875 53.9922 3.40625C53.8516 4.76562 53.6328 6.125 53.3359 7.48438L50.4062 20.2578H57.7422ZM77.9172 35H75.6203V2.9375H68.8V0.734375H84.7375V2.9375H77.9172V35ZM108.639 25.3906C108.639 28.3906 107.842 30.7422 106.248 32.4453C104.67 34.1484 102.491 35 99.7094 35H93.7094V0.734375H96.0062V15.9453H99.6625C102.725 15.9453 104.983 16.7109 106.436 18.2422C107.905 19.7578 108.639 22.1406 108.639 25.3906ZM96.0062 32.8906H99.8031C101.897 32.8906 103.498 32.25 104.608 30.9688C105.717 29.6719 106.272 27.8125 106.272 25.3906C106.272 22.875 105.748 21.0234 104.702 19.8359C103.655 18.6484 102.006 18.0547 99.7562 18.0547H96.0062V32.8906Z" fill="#D1A954"/>
<path d="M144.114 35L134.997 3.80469H134.809C134.966 7.08594 135.044 9.16406 135.044 10.0391V35H132.841V0.734375H136.239L143.927 26.9375C144.614 29.25 145.059 31.2188 145.262 32.8438H145.45C145.606 31.6875 146.091 29.7344 146.903 26.9844L154.52 0.734375H158.036V35H155.739V10.2266C155.739 9.25781 155.817 7.13281 155.973 3.85156H155.786L146.716 35H144.114ZM182.781 35H170.359V0.734375H182.781V2.9375H172.656V15.9453H182.219V18.1484H172.656V32.7969H182.781V35ZM210.175 32.7969H212.777V43.6484H210.573V35H193.628V0.734375H195.925V32.7969H207.878V0.734375H210.175V32.7969ZM235.037 35H222.616V0.734375H235.037V2.9375H224.912V15.9453H234.475V18.1484H224.912V32.7969H235.037V35ZM262.431 35H260.134V18.1484H248.181V35H245.884V0.734375H248.181V15.9453H260.134V0.734375H262.431V35ZM287.692 35L284.669 22.5781H276.348L273.372 35H270.981L279.231 0.734375H281.598L290.036 35H287.692ZM284.13 20.2578L281.106 7.48438C280.794 6.04688 280.552 4.6875 280.38 3.40625C280.239 4.76562 280.02 6.125 279.723 7.48438L276.794 20.2578H284.13ZM304.305 35H302.008V2.9375H295.188V0.734375H311.125V2.9375H304.305V35ZM338.706 17.8203C338.706 23.4922 337.855 27.8516 336.152 30.8984C334.464 33.9453 332.019 35.4688 328.816 35.4688C325.581 35.4688 323.128 33.9375 321.456 30.875C319.784 27.7969 318.948 23.4297 318.948 17.7734C318.948 11.8672 319.777 7.46875 321.433 4.57812C323.089 1.6875 325.573 0.242188 328.886 0.242188C332.073 0.242188 334.503 1.76562 336.175 4.8125C337.862 7.84375 338.706 12.1797 338.706 17.8203ZM321.339 17.8203C321.339 22.9141 321.972 26.7656 323.237 29.375C324.519 31.9688 326.378 33.2656 328.816 33.2656C331.269 33.2656 333.128 31.9766 334.394 29.3984C335.675 26.8203 336.316 22.9609 336.316 17.8203C336.316 12.7422 335.691 8.91406 334.441 6.33594C333.191 3.74219 331.339 2.44531 328.886 2.44531C326.37 2.44531 324.48 3.75781 323.214 6.38281C321.964 8.99219 321.339 12.8047 321.339 17.8203ZM361.155 35L352.038 3.80469H351.85C352.006 7.08594 352.084 9.16406 352.084 10.0391V35H349.881V0.734375H353.28L360.967 26.9375C361.655 29.25 362.1 31.2188 362.303 32.8438H362.491C362.647 31.6875 363.131 29.7344 363.944 26.9844L371.561 0.734375H375.077V35H372.78V10.2266C372.78 9.25781 372.858 7.13281 373.014 3.85156H372.827L363.756 35H361.155Z" fill="white"/>
</svg>
